<?xml version="1.0" standalone="no"?>
<!DOCTYPE svg PUBLIC "-//W3C//DTD SVG 20010904//EN"
 "http://www.w3.org/TR/2001/REC-SVG-20010904/DTD/svg10.dtd">
<svg version="1.0" xmlns="http://www.w3.org/2000/svg"
 width="700.000000pt" height="700.000000pt" viewBox="0 0 700.000000 700.000000"
 preserveAspectRatio="xMidYMid meet">
<metadata>
Created by potrace 1.11, written by Peter Selinger 2001-2013
</metadata>
<g transform="translate(0.000000,700.000000) scale(0.100000,-0.100000)"
fill="#000000" stroke="none">
<path d="M2589 6566 c-2 -2 -53 -7 -113 -10 -139 -9 -165 -12 -308 -42 -176
-37 -384 -110 -533 -187 -101 -53 -287 -169 -315 -197 -3 -3 -34 -27 -70 -55
-83 -64 -249 -229 -326 -325 -136 -171 -243 -351 -322 -545 -85 -212 -131
-400 -157 -650 -17 -158 3 -481 39 -630 34 -143 55 -220 76 -270 34 -84 50
-130 50 -141 0 -8 5 -14 10 -14 6 0 10 -5 10 -12 0 -10 72 -158 104 -213 130
-227 354 -479 568 -640 237 -178 519 -315 783 -379 140 -34 145 -36 145 -54 0
-58 80 -312 143 -458 221 -512 679 -952 1194 -1150 37 -14 77 -30 88 -34 83
-36 330 -92 460 -105 39 -4 81 -9 95 -11 39 -5 290 -5 340 0 45 5 98 11 180
22 80 11 302 70 405 109 382 144 707 381 953 695 104 132 90 112 144 200 143
233 264 544 294 760 2 19 6 44 9 55 40 193 33 522 -16 765 -117 579 -453 1081
-938 1399 -112 74 -270 158 -366 196 -38 15 -79 31 -90 36 -42 17 -147 48
-236 69 -52 12 -99 23 -104 25 -9 2 -24 57 -41 147 -6 29 -65 211 -81 248 -8
19 -19 44 -23 55 -58 145 -182 356 -298 504 -80 102 -240 265 -342 348 -82 66
-271 193 -288 193 -6 0 -12 4 -14 8 -4 10 -171 92 -258 127 -218 88 -458 141
-680 151 -63 2 -127 7 -141 9 -15 2 -28 3 -30 1z"/>
</g>
</svg>
